<?xml version="1.0" encoding="UTF-8"?>
<svg id="Layer_1" xmlns="http://www.w3.org/2000/svg" xmlns:xlink="http://www.w3.org/1999/xlink" viewBox="90 90 320 320">
  <defs>
    <style>
      .cls-1 {
        fill: url(#linear-gradient-7);
      }

      .cls-2 {
        fill: url(#linear-gradient-5);
      }

      .cls-3 {
        fill: url(#linear-gradient-6);
      }

      .cls-4 {
        fill: url(#linear-gradient-4);
      }

      .cls-5 {
        fill: url(#linear-gradient-3);
      }

      .cls-6 {
        fill: url(#linear-gradient-2);
      }

      .cls-7 {
        fill: url(#linear-gradient);
      }

      .cls-8 {
        fill: #ffeb8a;
      }

      .cls-9, .cls-10 {
        fill: #fff;
      }

      .cls-10 {
        font-family: Helvetica-Bold, Helvetica;
        font-size: 25.08px;
        font-weight: 700;
      }

      .cls-11 {
        fill: #0e1937;
      }

      .cls-12 {
        letter-spacing: -.04em;
      }
    </style>
    <linearGradient id="linear-gradient" x1="110.58" y1="250" x2="389.42" y2="250" gradientUnits="userSpaceOnUse">
      <stop offset="0" stop-color="#fff"/>
      <stop offset=".24" stop-color="#ffefa3"/>
      <stop offset=".3" stop-color="#ffeb8a"/>
      <stop offset="1" stop-color="#c3996b"/>
    </linearGradient>
    <linearGradient id="linear-gradient-2" x1="142.44" y1="289.4" x2="362.33" y2="289.4" xlink:href="#linear-gradient"/>
    <linearGradient id="linear-gradient-3" x1="142.44" y1="296.78" x2="362.33" y2="296.78" xlink:href="#linear-gradient"/>
    <linearGradient id="linear-gradient-4" x1="142.44" y1="296.42" x2="362.33" y2="296.42" xlink:href="#linear-gradient"/>
    <linearGradient id="linear-gradient-5" x1="142.44" y1="296.45" x2="362.33" y2="296.45" xlink:href="#linear-gradient"/>
    <linearGradient id="linear-gradient-6" x1="142.44" y1="296.86" x2="362.33" y2="296.86" xlink:href="#linear-gradient"/>
    <linearGradient id="linear-gradient-7" x1="142.44" y1="296.41" x2="362.33" y2="296.41" xlink:href="#linear-gradient"/>
  </defs>
  <g>
    <circle class="cls-11" cx="250" cy="250" r="153.5"/>
    <circle class="cls-7" cx="250" cy="250" r="139.42"/>
    <circle class="cls-11" cx="250" cy="250" r="133.78"/>
    <g>
      <polygon class="cls-8" points="142.08 279.66 142.08 281.02 142.08 281.94 142.08 283.3 142.44 283.3 142.44 279.66 142.08 279.66"/>
      <path class="cls-8" d="M144.51,283.3h5.29c0,3.56-.01,8.94-.03,16.15-.02,8.2-.03,12.6-.03,13.21h0c0,.74,0,1.2,0,1.36h4.84c0-.15,0-.61,0-1.36h0c0-.52,0-4.95-.01-13.27,0-7.28-.01-12.64-.01-16.09h13.73v-3.65h-13.72c.03-2.03.3-3.67.82-4.91.55-1.32,1.38-2.47,2.48-3.47.93-.85,2.38-1.55,4.34-2.12,1.96-.57,3.68-.85,5.15-.85h1.83l-.49-3.52h-4.11c-1.74,0-3.63.29-5.67.86-2.04.58-3.61,1.33-4.74,2.27-1.57,1.28-2.69,2.78-3.36,4.48-.67,1.71-1,3.63-1,5.76v1.5h-7.36v3.65h2.07Z"/>
      <path class="cls-6" d="M144.51,283.3h5.29c0,3.56-.01,8.94-.03,16.15-.02,8.2-.03,12.6-.03,13.21h0c0,.74,0,1.2,0,1.36h4.84c0-.15,0-.61,0-1.36h0c0-.52,0-4.95-.01-13.27,0-7.28-.01-12.64-.01-16.09h13.73v-3.65h-13.72c.03-2.03.3-3.67.82-4.91.55-1.32,1.38-2.47,2.48-3.47.93-.85,2.38-1.55,4.34-2.12,1.96-.57,3.68-.85,5.15-.85h1.83l-.49-3.52h-4.11c-1.74,0-3.63.29-5.67.86-2.04.58-3.61,1.33-4.74,2.27-1.57,1.28-2.69,2.78-3.36,4.48-.67,1.71-1,3.63-1,5.76v1.5h-7.36v3.65h2.07Z"/>
      <path class="cls-8" d="M208.02,288.71c-.94-2.19-2.23-4.02-3.87-5.5-1.55-1.37-3.38-2.42-5.5-3.16-2.12-.74-4.43-1.11-6.92-1.11-.2,0-.4.02-.6.02-.21,0-.41-.02-.61-.02s-.4.02-.6.02c-.21,0-.41-.02-.61-.02-2.44,0-4.69.37-6.76,1.11-2.07.74-3.86,1.77-5.37,3.1-1.78,1.52-3.16,3.4-4.15,5.64-.99,2.24-1.48,4.7-1.48,7.37,0,.23.02.45.03.68,0,.23-.03.45-.03.68,0,2.52.47,4.87,1.41,7.04.94,2.17,2.25,4.03,3.93,5.58,1.53,1.37,3.35,2.46,5.46,3.26,2.11.8,4.44,1.21,6.99,1.21.21,0,.4-.02.6-.02.2,0,.4.02.61.02s.4-.02.6-.02c.2,0,.4.02.61.02,2.53,0,4.85-.4,6.95-1.21,2.1-.8,3.9-1.9,5.41-3.29,1.68-1.54,2.99-3.4,3.92-5.58.93-2.17,1.39-4.52,1.39-7.04,0-.24-.02-.47-.03-.71,0-.22.03-.43.03-.66,0-2.76-.47-5.23-1.41-7.42ZM203.28,302.39c-.81,1.87-1.93,3.46-3.34,4.76-1.34,1.22-2.92,2.16-4.75,2.82-1.47.53-3.05.84-4.74.95-1.58-.1-3.1-.4-4.55-.91-1.82-.64-3.42-1.58-4.79-2.82-1.39-1.26-2.52-2.83-3.38-4.7-.78-1.69-1.19-3.59-1.26-5.69.07-2.05.46-3.93,1.19-5.62.81-1.88,1.93-3.47,3.37-4.78,1.34-1.22,2.92-2.16,4.75-2.82,1.47-.53,3.05-.84,4.75-.95,1.58.11,3.1.42,4.56.96,1.82.67,3.43,1.63,4.85,2.87,1.41,1.24,2.53,2.79,3.34,4.65.73,1.67,1.12,3.58,1.19,5.68-.07,2.04-.46,3.91-1.19,5.59Z"/>
      <path class="cls-5" d="M208.02,288.71c-.94-2.19-2.23-4.02-3.87-5.5-1.55-1.37-3.38-2.42-5.5-3.16-2.12-.74-4.43-1.11-6.92-1.11-.2,0-.4.02-.6.02-.21,0-.41-.02-.61-.02s-.4.02-.6.02c-.21,0-.41-.02-.61-.02-2.44,0-4.69.37-6.76,1.11-2.07.74-3.86,1.77-5.37,3.1-1.78,1.52-3.16,3.4-4.15,5.64-.99,2.24-1.48,4.7-1.48,7.37,0,.23.02.45.03.68,0,.23-.03.45-.03.68,0,2.52.47,4.87,1.41,7.04.94,2.17,2.25,4.03,3.93,5.58,1.53,1.37,3.35,2.46,5.46,3.26,2.11.8,4.44,1.21,6.99,1.21.21,0,.4-.02.6-.02.2,0,.4.02.61.02s.4-.02.6-.02c.2,0,.4.02.61.02,2.53,0,4.85-.4,6.95-1.21,2.1-.8,3.9-1.9,5.41-3.29,1.68-1.54,2.99-3.4,3.92-5.58.93-2.17,1.39-4.52,1.39-7.04,0-.24-.02-.47-.03-.71,0-.22.03-.43.03-.66,0-2.76-.47-5.23-1.41-7.42ZM203.28,302.39c-.81,1.87-1.93,3.46-3.34,4.76-1.34,1.22-2.92,2.16-4.75,2.82-1.47.53-3.05.84-4.74.95-1.58-.1-3.1-.4-4.55-.91-1.82-.64-3.42-1.58-4.79-2.82-1.39-1.26-2.52-2.83-3.38-4.7-.78-1.69-1.19-3.59-1.26-5.69.07-2.05.46-3.93,1.19-5.62.81-1.88,1.93-3.47,3.37-4.78,1.34-1.22,2.92-2.16,4.75-2.82,1.47-.53,3.05-.84,4.75-.95,1.58.11,3.1.42,4.56.96,1.82.67,3.43,1.63,4.85,2.87,1.41,1.24,2.53,2.79,3.34,4.65.73,1.67,1.12,3.58,1.19,5.68-.07,2.04-.46,3.91-1.19,5.59Z"/>
      <path class="cls-8" d="M228.83,281.29c-2.46.92-4.63,1.82-6.56,2.71l.03-2.97h-.01v-1.36s-1.2,0-1.2,0h-3.62c0,.44,0,.91,0,1.36h0c0,2.98,0,6.11.01,9.39,0,2.88.01,5.1.01,6.67,0,3.78,0,6.88-.01,9.25,0,2.52-.01,4.61-.01,6.26h0c0,.48,0,.94,0,1.36h4.84c0-.2,0-.66,0-1.36h0c0-.52,0-2.72-.01-6.6,0-3.88-.01-6.58-.01-8.1v-8.81c3.15-1.7,6.32-3.09,9.5-4.19,3.19-1.1,5.75-1.85,7.68-2.27l-.75-3.74c-.32.06-6.32,1.09-9.87,2.41Z"/>
      <path class="cls-4" d="M228.83,281.29c-2.46.92-4.63,1.82-6.56,2.71l.03-2.97h-.01v-1.36s-1.2,0-1.2,0h-3.62c0,.44,0,.91,0,1.36h0c0,2.98,0,6.11.01,9.39,0,2.88.01,5.1.01,6.67,0,3.78,0,6.88-.01,9.25,0,2.52-.01,4.61-.01,6.26h0c0,.48,0,.94,0,1.36h4.84c0-.2,0-.66,0-1.36h0c0-.52,0-2.72-.01-6.6,0-3.88-.01-6.58-.01-8.1v-8.81c3.15-1.7,6.32-3.09,9.5-4.19,3.19-1.1,5.75-1.85,7.68-2.27l-.75-3.74c-.32.06-6.32,1.09-9.87,2.41Z"/>
      <path class="cls-8" d="M274.76,281.68c-1.8-1.83-4.4-2.74-7.8-2.74-.17,0-.33.02-.5.02-.24,0-.47-.02-.71-.02-.17,0-.33.02-.5.02-.24,0-.47-.02-.71-.02-3.04,0-6.11.6-9.21,1.81-1.88.73-3.48,1.4-4.86,2.02v-1.75s0,0,0,0v-1.36s-1.2,0-1.2,0h-3.56c0,.42,0,.87,0,1.36h0c0,1.7,0,3.97.01,6.83,0,2.69.01,6.07.01,10.08,0,3.48,0,6.64-.01,9.46-.01,2.99-.01,4.72-.01,5.2h0c0,.69,0,1.15,0,1.36h4.84c0-.2,0-.66,0-1.36h0c0-.48,0-2.4-.03-5.77-.02-3.37-.03-6.54-.03-9.52v-9.53c2.69-1.41,5.42-2.61,8.2-3.59,2.34-.82,4.4-1.28,6.21-1.41,2.63.2,4.54.98,5.7,2.36,1.36,1.61,2.05,4.12,2.05,7.53,0,.83,0,2.1.01,3.82,0,1.59.01,3.36.01,5.28,0,1.69,0,3.63-.01,5.88,0,2.65-.01,4.31-.01,4.96h0c0,.63,0,1.09,0,1.36h4.84c0-.22,0-.69,0-1.36h0c0-.52,0-2.29-.01-5.32,0-2.5-.01-4.49-.01-6.04,0-1.54,0-3.22.01-5.06,0-2,.01-3.86.01-5.58,0-.02,0-.03,0-.05,0-.44,0-.89,0-1.31,0-3.22-.9-5.74-2.71-7.57Z"/>
      <path class="cls-2" d="M274.76,281.68c-1.8-1.83-4.4-2.74-7.8-2.74-.17,0-.33.02-.5.02-.24,0-.47-.02-.71-.02-.17,0-.33.02-.5.02-.24,0-.47-.02-.71-.02-3.04,0-6.11.6-9.21,1.81-1.88.73-3.48,1.4-4.86,2.02v-1.75s0,0,0,0v-1.36s-1.2,0-1.2,0h-3.56c0,.42,0,.87,0,1.36h0c0,1.7,0,3.97.01,6.83,0,2.69.01,6.07.01,10.08,0,3.48,0,6.64-.01,9.46-.01,2.99-.01,4.72-.01,5.2h0c0,.69,0,1.15,0,1.36h4.84c0-.2,0-.66,0-1.36h0c0-.48,0-2.4-.03-5.77-.02-3.37-.03-6.54-.03-9.52v-9.53c2.69-1.41,5.42-2.61,8.2-3.59,2.34-.82,4.4-1.28,6.21-1.41,2.63.2,4.54.98,5.7,2.36,1.36,1.61,2.05,4.12,2.05,7.53,0,.83,0,2.1.01,3.82,0,1.59.01,3.36.01,5.28,0,1.69,0,3.63-.01,5.88,0,2.65-.01,4.31-.01,4.96h0c0,.63,0,1.09,0,1.36h4.84c0-.22,0-.69,0-1.36h0c0-.52,0-2.29-.01-5.32,0-2.5-.01-4.49-.01-6.04,0-1.54,0-3.22.01-5.06,0-2,.01-3.86.01-5.58,0-.02,0-.03,0-.05,0-.44,0-.89,0-1.31,0-3.22-.9-5.74-2.71-7.57Z"/>
      <path class="cls-8" d="M312.83,283.86c-1.45-1.54-3.41-2.68-5.86-3.4-2.46-.73-5.4-1.09-8.82-1.09-.36,0-.7,0-1.03,0-.06,0-.12,0-.19,0-.36,0-.7,0-1.03,0-.06,0-.12,0-.19,0-1.45,0-2.58.03-3.38.08-.8.05-1.45.09-1.93.11l-.35,3.71c.27-.01.68-.03,1.22-.05v.05c.26-.01.67-.03,1.21-.05v.05c.38-.02,1.06-.05,2.04-.08.53-.02,1.16-.03,1.86-.04,2.05.03,3.92.21,5.58.58,1.79.39,3.33.97,4.63,1.73,1.41.83,2.52,1.91,3.31,3.26.59,1,1,2.14,1.22,3.41-4.91.39-8.99.87-12.22,1.44-3.27.58-5.82,1.3-7.66,2.17-2.07.98-3.53,2.11-4.37,3.39-.84,1.28-1.26,2.71-1.26,4.27,0,.21.03.42.05.64-.02.24-.05.48-.05.73,0,1.57.49,3.09,1.47,4.57.98,1.48,2.61,2.66,4.89,3.56,1.45.54,3.19.92,5.22,1.14,2.03.22,4.47.33,7.31.33.14,0,.34,0,.52,0,.23,0,.45,0,.69,0,.14,0,.34,0,.52,0,.23,0,.45,0,.69,0,.83,0,2.36-.05,4.59-.16,2.22-.11,3.75-.18,4.59-.23v-20.16c0-2.15-.28-4.06-.83-5.72-.55-1.66-1.37-3.07-2.45-4.22ZM311.35,307.38c0,1.72-.01,2.7-.01,2.94-1.33.15-2.49.24-3.45.28-.49.02-.92.03-1.28.04-2.44-.03-4.55-.11-6.27-.27-2.08-.18-3.79-.53-5.12-1.03-1.7-.63-2.91-1.48-3.61-2.56-.57-.87-.9-1.82-1.01-2.83.11-.93.44-1.77,1.01-2.51.71-.91,1.79-1.7,3.24-2.35,1.86-.83,4.35-1.49,7.47-2.01,2.54-.41,5.55-.75,8.99-1.02,0,.69.01,1.67.03,2.97.02,1.27.03,2.71.03,4.26,0,1.33,0,2.68-.01,4.08Z"/>
      <path class="cls-3" d="M312.83,283.86c-1.45-1.54-3.41-2.68-5.86-3.4-2.46-.73-5.4-1.09-8.82-1.09-.36,0-.7,0-1.03,0-.06,0-.12,0-.19,0-.36,0-.7,0-1.03,0-.06,0-.12,0-.19,0-1.45,0-2.58.03-3.38.08-.8.05-1.45.09-1.93.11l-.35,3.71c.27-.01.68-.03,1.22-.05v.05c.26-.01.67-.03,1.21-.05v.05c.38-.02,1.06-.05,2.04-.08.53-.02,1.16-.03,1.86-.04,2.05.03,3.92.21,5.58.58,1.79.39,3.33.97,4.63,1.73,1.41.83,2.52,1.91,3.31,3.26.59,1,1,2.14,1.22,3.41-4.91.39-8.99.87-12.22,1.44-3.27.58-5.82,1.3-7.66,2.17-2.07.98-3.53,2.11-4.37,3.39-.84,1.28-1.26,2.71-1.26,4.27,0,.21.03.42.05.64-.02.24-.05.48-.05.73,0,1.57.49,3.09,1.47,4.57.98,1.48,2.61,2.66,4.89,3.56,1.45.54,3.19.92,5.22,1.14,2.03.22,4.47.33,7.31.33.14,0,.34,0,.52,0,.23,0,.45,0,.69,0,.14,0,.34,0,.52,0,.23,0,.45,0,.69,0,.83,0,2.36-.05,4.59-.16,2.22-.11,3.75-.18,4.59-.23v-20.16c0-2.15-.28-4.06-.83-5.72-.55-1.66-1.37-3.07-2.45-4.22ZM311.35,307.38c0,1.72-.01,2.7-.01,2.94-1.33.15-2.49.24-3.45.28-.49.02-.92.03-1.28.04-2.44-.03-4.55-.11-6.27-.27-2.08-.18-3.79-.53-5.12-1.03-1.7-.63-2.91-1.48-3.61-2.56-.57-.87-.9-1.82-1.01-2.83.11-.93.44-1.77,1.01-2.51.71-.91,1.79-1.7,3.24-2.35,1.86-.83,4.35-1.49,7.47-2.01,2.54-.41,5.55-.75,8.99-1.02,0,.69.01,1.67.03,2.97.02,1.27.03,2.71.03,4.26,0,1.33,0,2.68-.01,4.08Z"/>
      <path class="cls-8" d="M343.89,295.98c1.31-1.4,3.7-3.91,7.2-7.56,4.1-4.28,6.3-6.59,6.6-6.95l-4.06-3.11c-.28.27-1.81,1.91-4.61,4.92-2.48,2.67-5.33,5.71-8.51,9.06-2.55-2.76-5-5.42-7.33-7.95-2.68-2.92-4.53-4.93-5.55-6.03l-4.22,3.32c.32.31,1.84,1.94,4.57,4.87,2.57,2.77,5.55,5.96,8.9,9.54-3.41,3.65-6.59,7.02-9.51,10.1-3.09,3.26-4.73,4.97-4.91,5.12l4.08,3.18c.24-.25,2.26-2.42,6.08-6.53,3.14-3.38,5.68-6.12,7.66-8.22,3.18,3.42,6.13,6.62,8.84,9.54,3.04,3.29,4.62,5.01,4.74,5.14l4.22-3.32c-.28-.27-1.87-1.95-4.78-5.06-2.75-2.93-5.9-6.3-9.41-10.07Z"/>
      <path class="cls-1" d="M343.89,295.98c1.31-1.4,3.7-3.91,7.2-7.56,4.1-4.28,6.3-6.59,6.6-6.95l-4.06-3.11c-.28.27-1.81,1.91-4.61,4.92-2.48,2.67-5.33,5.71-8.51,9.06-2.55-2.76-5-5.42-7.33-7.95-2.68-2.92-4.53-4.93-5.55-6.03l-4.22,3.32c.32.31,1.84,1.94,4.57,4.87,2.57,2.77,5.55,5.96,8.9,9.54-3.41,3.65-6.59,7.02-9.51,10.1-3.09,3.26-4.73,4.97-4.91,5.12l4.08,3.18c.24-.25,2.26-2.42,6.08-6.53,3.14-3.38,5.68-6.12,7.66-8.22,3.18,3.42,6.13,6.62,8.84,9.54,3.04,3.29,4.62,5.01,4.74,5.14l4.22-3.32c-.28-.27-1.87-1.95-4.78-5.06-2.75-2.93-5.9-6.3-9.41-10.07Z"/>
    </g>
    <g>
      <path class="cls-9" d="M322.36,192.32c-2.66-12.18-3.53-20.43-3.76-24.74-.23,4.32-1.1,12.57-3.76,24.74-12.17,2.66-20.42,3.53-24.74,3.76,3.94.21,11.15.96,21.62,3.1l-76.09,21.25c-3.4-15.95-4.54-26.83-4.85-32.62-.3,5.61-1.38,15.99-4.54,31.14l-41.32-26.17c11.33-2.43,19.05-3.25,23.13-3.47-4.17-.22-12.13-1.06-23.87-3.62-2.56-11.75-3.4-19.71-3.62-23.88-.22,4.17-1.06,12.13-3.63,23.87-11.75,2.56-19.71,3.4-23.87,3.63,4.17.22,12.13,1.07,23.87,3.63,2.56,11.75,3.4,19.71,3.63,23.87.22-4.05,1.02-11.69,3.41-22.89l41.95,26.57c-.11.54-.22,1.06-.34,1.61-16.87,3.68-28.3,4.89-34.29,5.21,5.98.32,17.42,1.53,34.29,5.21,3.68,16.87,4.89,28.31,5.21,34.29.32-5.98,1.53-17.42,5.21-34.29,16.87-3.68,28.31-4.89,34.29-5.21-5.98-.32-17.42-1.53-34.29-5.21-.02-.08-.03-.15-.05-.23l78.9-22.04c2.66,12.17,3.52,20.42,3.76,24.73.23-4.32,1.1-12.57,3.76-24.74,12.17-2.65,20.43-3.53,24.74-3.76-4.32-.23-12.57-1.1-24.74-3.76Z"/>
      <path class="cls-9" d="M262.7,191.57c.18-3.39.87-9.88,2.95-19.45,9.57-2.09,16.06-2.77,19.45-2.95-3.4-.18-9.88-.87-19.45-2.95-2.09-9.57-2.77-16.06-2.95-19.46-.18,3.4-.87,9.88-2.96,19.45-9.57,2.09-16.06,2.77-19.45,2.96,3.4.18,9.88.87,19.45,2.95,2.09,9.57,2.77,16.06,2.95,19.45Z"/>
    </g>
  </g>
  <text class="cls-10" transform="translate(214.65 352.94)"><tspan x="0" y="0">NAS</tspan><tspan class="cls-12" x="52.96" y="0">A</tspan></text>
</svg>